<svg width="385" height="381" viewBox="0 0 385 381" fill="none" xmlns="http://www.w3.org/2000/svg">
<path d="M306.255 59.9107C308.491 61.7594 309.943 64.2885 310.611 67.4981C311.279 70.7077 310.982 74.2817 309.719 78.2199C308.522 82.2126 306.319 86.149 303.111 90.0294C300.447 93.252 296.856 95.6533 292.339 97.2334C287.942 98.8021 283.822 99.7688 279.977 100.133C277.574 100.361 275.283 101.124 273.103 102.422C270.923 103.72 268.963 105.421 267.223 107.526C265.156 110.025 263.54 111.511 262.373 111.986C261.806 112.403 261.135 112.679 260.36 112.813C259.651 113.002 259.044 112.999 258.541 112.804C258.223 112.652 257.561 112.382 256.555 111.992C255.668 111.591 254.929 111.146 254.337 110.657C253.285 109.787 252.663 108.664 252.472 107.288C251.58 105.554 251.352 104.425 251.787 103.898C252.242 102.946 252.904 101.944 253.774 100.891L256.646 97.6189C258.3 95.8861 259.562 94.4936 260.432 93.4413C261.737 91.8629 263.709 90.615 266.35 89.6979C269.045 88.7149 272.673 87.6737 277.236 86.5742C281.101 85.7833 283.758 85.0464 285.209 84.3633C288.013 83.2488 290.148 81.8037 291.616 80.028C293.139 78.1864 293.792 76.1244 293.575 73.8417C292.873 70.2717 291.535 67.6711 289.562 66.0399C288.773 65.3874 287.683 64.7635 286.294 64.168C284.489 63.6724 281.473 63.504 277.245 63.6625C276.819 63.6424 276.506 63.2175 276.306 62.3879C276.106 61.5583 275.893 60.2753 275.668 58.539L275.245 55.0334C275.165 54.1925 275.194 53.2199 275.331 52.1159C275.524 50.9461 275.931 50.4528 276.555 50.6361C280.202 50.1083 283.496 50.008 286.436 50.3352C290.481 50.8002 293.68 51.618 296.033 52.7888C298.507 53.9482 301.914 56.3222 306.255 59.9107ZM251.203 114.045C253.308 115.785 254.288 117.814 254.144 120.131C254.121 122.436 253.456 124.378 252.151 125.956C251.771 126.417 251.466 126.718 251.237 126.861C250.639 127.585 249.603 128.168 248.13 128.611C246.711 128.988 245.204 129.07 243.608 128.858C241.957 128.711 240.54 128.149 239.356 127.17C237.712 125.811 236.863 123.891 236.81 121.411C236.877 118.92 237.726 116.688 239.357 114.715C239.846 114.123 240.26 113.689 240.597 113.415C243.854 110.682 247.389 110.892 251.203 114.045Z" fill="black"/>
<path d="M198.616 20.456C201.517 20.456 204.248 21.48 206.808 23.528C209.368 25.576 211.416 28.52 212.952 32.36C214.573 36.2 215.384 40.6373 215.384 45.672C215.384 49.8533 214.147 53.992 211.672 58.088C209.283 62.0987 206.723 65.4693 203.992 68.2C202.285 69.9067 201.005 71.9547 200.152 74.344C199.299 76.7333 198.872 79.2933 198.872 82.024C198.872 85.2667 198.573 87.4427 197.976 88.552C197.805 89.2347 197.464 89.8747 196.952 90.472C196.525 91.0693 196.056 91.4533 195.544 91.624C195.203 91.7093 194.52 91.9227 193.496 92.264C192.557 92.52 191.704 92.648 190.936 92.648C189.571 92.648 188.376 92.1787 187.352 91.24C185.56 90.472 184.664 89.7467 184.664 89.064C184.408 88.04 184.28 86.8453 184.28 85.48L184.408 81.128C184.579 78.7387 184.664 76.8613 184.664 75.496C184.664 73.448 185.389 71.2293 186.84 68.84C188.291 66.3653 190.424 63.2507 193.24 59.496C195.715 56.424 197.293 54.1627 197.976 52.712C199.427 50.0667 200.152 47.592 200.152 45.288C200.152 42.8987 199.341 40.8933 197.72 39.272C194.904 36.968 192.216 35.816 189.656 35.816C188.632 35.816 187.395 36.0293 185.944 36.456C184.237 37.224 181.805 39.016 178.648 41.832C178.307 42.088 177.795 41.96 177.112 41.448C176.429 40.936 175.448 40.0827 174.168 38.888L171.608 36.456C171.011 35.8587 170.413 35.0907 169.816 34.152C169.219 33.128 169.219 32.488 169.816 32.232C172.291 29.5013 174.765 27.3253 177.24 25.704C180.653 23.4853 183.64 22.0773 186.2 21.48C188.845 20.7973 192.984 20.456 198.616 20.456ZM190.68 97.256C193.411 97.256 195.459 98.1947 196.824 100.072C198.275 101.864 199 103.784 199 105.832C199 106.429 198.957 106.856 198.872 107.112C198.872 108.051 198.445 109.16 197.592 110.44C196.739 111.635 195.629 112.659 194.264 113.512C192.899 114.451 191.448 114.92 189.912 114.92C187.779 114.92 185.901 113.981 184.28 112.104C182.744 110.141 181.976 107.88 181.976 105.32C181.976 104.552 182.019 103.955 182.104 103.528C182.872 99.3467 185.731 97.256 190.68 97.256Z" fill="black"/>
<path d="M359.372 148.92C360.138 151.719 359.871 154.623 358.572 157.633C357.273 160.643 354.974 163.396 351.676 165.891C348.401 168.469 344.335 170.423 339.479 171.753C335.447 172.857 331.128 172.757 326.524 171.452C322.025 170.206 318.098 168.627 314.743 166.715C312.646 165.52 310.332 164.826 307.803 164.634C305.273 164.442 302.691 164.707 300.057 165.428C296.93 166.284 294.752 166.571 293.524 166.288C292.821 166.303 292.113 166.143 291.402 165.807C290.713 165.553 290.219 165.202 289.919 164.753C289.747 164.447 289.361 163.845 288.761 162.947C288.266 162.109 287.917 161.32 287.715 160.579C287.354 159.263 287.491 157.986 288.126 156.751C288.393 154.82 288.856 153.764 289.515 153.584C290.435 153.066 291.553 152.627 292.87 152.267L297.101 151.241C299.451 150.774 301.284 150.361 302.601 150C304.576 149.459 306.908 149.573 309.595 150.341C312.365 151.087 315.933 152.322 320.298 154.046C323.914 155.621 326.512 156.547 328.092 156.822C331.026 157.523 333.605 157.569 335.827 156.96C338.131 156.329 339.851 155.018 340.987 153.026C342.465 149.701 342.867 146.804 342.191 144.335C341.92 143.347 341.388 142.21 340.593 140.924C339.401 139.481 337.031 137.608 333.481 135.307C333.144 135.045 333.132 134.518 333.446 133.724C333.759 132.93 334.323 131.758 335.137 130.208L336.807 127.097C337.225 126.363 337.808 125.584 338.556 124.76C339.385 123.914 340.003 123.744 340.407 124.253C343.695 125.919 346.447 127.731 348.664 129.689C351.706 132.395 353.853 134.904 355.105 137.216C356.462 139.587 357.884 143.488 359.372 148.92ZM283.203 161.55C283.924 164.183 283.559 166.406 282.109 168.219C280.764 170.092 279.104 171.298 277.128 171.839C276.552 171.997 276.129 172.068 275.86 172.054C274.955 172.302 273.772 172.183 272.312 171.698C270.935 171.191 269.654 170.391 268.47 169.3C267.204 168.231 266.369 166.955 265.963 165.474C265.399 163.416 265.809 161.358 267.191 159.298C268.679 157.298 270.657 155.96 273.126 155.284C273.867 155.081 274.454 154.965 274.888 154.934C279.124 154.571 281.895 156.776 283.203 161.55Z" fill="black"/>
<path d="M351.64 252.285C350.657 255.015 348.769 257.238 345.975 258.953C343.181 260.668 339.718 261.599 335.585 261.744C331.423 261.969 326.973 261.23 322.236 259.525C318.301 258.109 314.826 255.544 311.81 251.828C308.845 248.222 306.54 244.672 304.895 241.178C303.867 238.994 302.374 237.097 300.414 235.485C298.455 233.873 296.191 232.604 293.621 231.68C290.57 230.582 288.624 229.564 287.782 228.627C287.198 228.235 286.711 227.697 286.322 227.013C285.905 226.409 285.702 225.838 285.715 225.298C285.75 224.948 285.781 224.233 285.806 223.154C285.883 222.184 286.052 221.338 286.312 220.615C286.774 219.331 287.62 218.366 288.85 217.72C290.18 216.294 291.165 215.696 291.808 215.927C292.858 216.033 294.025 216.317 295.31 216.78L299.362 218.374C301.552 219.343 303.29 220.059 304.574 220.521C306.501 221.215 308.343 222.648 310.1 224.822C311.938 227.025 314.146 230.087 316.726 234.008C318.778 237.377 320.372 239.628 321.505 240.761C323.503 243.022 325.586 244.542 327.754 245.323C330.002 246.132 332.164 246.048 334.238 245.071C337.36 243.202 339.354 241.062 340.22 238.654C340.567 237.69 340.785 236.454 340.875 234.944C340.73 233.078 339.868 230.183 338.287 226.259C338.162 225.851 338.455 225.413 339.168 224.944C339.881 224.475 341.016 223.84 342.574 223.04L345.729 221.455C346.493 221.095 347.418 220.793 348.504 220.549C349.67 220.333 350.272 220.55 350.31 221.199C352.042 224.452 353.251 227.517 353.939 230.395C354.871 234.358 355.185 237.645 354.88 240.256C354.627 242.976 353.546 246.986 351.64 252.285ZM282.063 218.814C281.138 221.384 279.561 222.993 277.333 223.642C275.155 224.4 273.103 224.433 271.176 223.739C270.614 223.537 270.227 223.352 270.015 223.185C269.132 222.868 268.233 222.091 267.317 220.854C266.482 219.647 265.894 218.256 265.553 216.683C265.132 215.08 265.182 213.556 265.702 212.111C266.424 210.104 267.943 208.655 270.259 207.765C272.625 206.984 275.013 207.027 277.422 207.894C278.145 208.154 278.692 208.397 279.065 208.621C282.739 210.76 283.738 214.157 282.063 218.814Z" fill="black"/>
<path d="M285.872 332.402C283.498 334.07 280.675 334.803 277.403 334.599C274.131 334.396 270.763 333.165 267.298 330.907C263.763 328.698 260.548 325.534 257.653 321.415C255.248 317.994 253.881 313.897 253.55 309.123C253.198 304.468 253.354 300.238 254.018 296.434C254.432 294.056 254.302 291.644 253.626 289.199C252.95 286.754 251.827 284.414 250.256 282.18C248.392 279.527 247.385 277.575 247.235 276.324C246.982 275.667 246.894 274.948 246.969 274.164C246.975 273.43 247.138 272.846 247.458 272.412C247.689 272.146 248.124 271.579 248.766 270.711C249.387 269.962 250.011 269.366 250.639 268.925C251.756 268.139 253.004 267.836 254.381 268.015C256.289 267.613 257.439 267.691 257.832 268.25C258.63 268.94 259.422 269.844 260.207 270.961L262.605 274.595C263.839 276.648 264.849 278.233 265.634 279.35C266.812 281.025 267.494 283.258 267.682 286.047C267.918 288.905 267.964 292.68 267.819 297.371C267.561 301.308 267.57 304.066 267.846 305.645C268.18 308.643 269.01 311.085 270.335 312.97C271.709 314.925 273.526 316.099 275.784 316.493C279.413 316.758 282.275 316.155 284.369 314.683C285.207 314.094 286.096 313.208 287.038 312.025C287.992 310.415 288.951 307.55 289.915 303.431C290.047 303.025 290.54 302.835 291.393 302.862C292.245 302.888 293.539 303.022 295.273 303.263L298.766 303.78C299.598 303.926 300.529 304.21 301.557 304.635C302.635 305.129 303.003 305.653 302.661 306.206C302.207 309.863 301.434 313.066 300.342 315.816C298.825 319.594 297.191 322.463 295.441 324.424C293.669 326.504 290.479 329.163 285.872 332.402ZM248.199 265.008C245.965 266.578 243.75 266.988 241.553 266.237C239.336 265.605 237.638 264.452 236.46 262.776C236.117 262.287 235.907 261.914 235.829 261.655C235.289 260.887 235 259.734 234.962 258.197C234.974 256.729 235.292 255.253 235.918 253.77C236.496 252.216 237.413 250.998 238.669 250.115C240.414 248.888 242.49 248.576 244.896 249.18C247.281 249.902 249.21 251.311 250.682 253.405C251.124 254.033 251.433 254.546 251.608 254.945C253.384 258.807 252.248 262.161 248.199 265.008Z" fill="black"/>
<path d="M185.994 360.124C183.093 360.124 180.362 359.1 177.802 357.052C175.242 355.004 173.194 352.06 171.658 348.22C170.037 344.38 169.226 339.943 169.226 334.908C169.226 330.727 170.464 326.588 172.938 322.492C175.328 318.482 177.888 315.111 180.618 312.38C182.325 310.674 183.605 308.626 184.458 306.236C185.312 303.847 185.738 301.287 185.738 298.556C185.738 295.314 186.037 293.138 186.634 292.028C186.805 291.346 187.146 290.706 187.658 290.108C188.085 289.511 188.554 289.127 189.066 288.956C189.408 288.871 190.09 288.658 191.114 288.316C192.053 288.06 192.906 287.932 193.674 287.932C195.04 287.932 196.234 288.402 197.258 289.34C199.05 290.108 199.946 290.834 199.946 291.516C200.202 292.54 200.33 293.735 200.33 295.1L200.202 299.452C200.032 301.842 199.946 303.719 199.946 305.084C199.946 307.132 199.221 309.351 197.77 311.74C196.32 314.215 194.186 317.33 191.37 321.084C188.896 324.156 187.317 326.418 186.634 327.868C185.184 330.514 184.458 332.988 184.458 335.292C184.458 337.682 185.269 339.687 186.89 341.308C189.706 343.612 192.394 344.764 194.954 344.764C195.978 344.764 197.216 344.551 198.666 344.124C200.373 343.356 202.805 341.564 205.962 338.748C206.304 338.492 206.816 338.62 207.498 339.132C208.181 339.644 209.162 340.498 210.442 341.692L213.002 344.124C213.6 344.722 214.197 345.49 214.794 346.428C215.392 347.452 215.392 348.092 214.794 348.348C212.32 351.079 209.845 353.255 207.37 354.876C203.957 357.095 200.97 358.503 198.41 359.1C195.765 359.783 191.626 360.124 185.994 360.124ZM193.93 283.324C191.2 283.324 189.152 282.386 187.786 280.508C186.336 278.716 185.61 276.796 185.61 274.748C185.61 274.151 185.653 273.724 185.738 273.468C185.738 272.53 186.165 271.42 187.018 270.14C187.872 268.946 188.981 267.922 190.346 267.068C191.712 266.13 193.162 265.66 194.698 265.66C196.832 265.66 198.709 266.599 200.33 268.476C201.866 270.439 202.634 272.7 202.634 275.26C202.634 276.028 202.592 276.626 202.506 277.052C201.738 281.234 198.88 283.324 193.93 283.324Z" fill="black"/>
<path d="M88.3417 325.368C85.9682 323.699 84.3231 321.291 83.4065 318.143C82.4899 314.996 82.5074 311.41 83.4591 307.385C84.3409 303.311 86.2295 299.214 89.1248 295.096C91.5294 291.675 94.9217 289 99.3017 287.073C103.563 285.166 107.596 283.88 111.4 283.217C113.778 282.802 116.002 281.862 118.075 280.398C120.147 278.934 121.968 277.085 123.538 274.851C125.403 272.199 126.899 270.59 128.025 270.026C128.558 269.566 129.205 269.238 129.967 269.044C130.66 268.801 131.265 268.757 131.782 268.911C132.11 269.038 132.791 269.256 133.825 269.566C134.74 269.896 135.512 270.282 136.14 270.724C137.257 271.509 137.965 272.58 138.263 273.937C139.287 275.595 139.603 276.704 139.21 277.263C138.831 278.248 138.249 279.299 137.464 280.415L134.856 283.902C133.342 285.759 132.193 287.246 131.408 288.363C130.23 290.038 128.361 291.436 125.8 292.557C123.19 293.747 119.654 295.068 115.191 296.52C111.4 297.611 108.808 298.553 107.415 299.347C104.707 300.677 102.69 302.284 101.365 304.169C99.9913 306.124 99.5013 308.231 99.8953 310.489C100.874 313.994 102.411 316.482 104.505 317.954C105.343 318.543 106.478 319.08 107.91 319.565C109.748 319.918 112.768 319.851 116.97 319.363C117.397 319.35 117.742 319.749 118.006 320.56C118.27 321.372 118.582 322.634 118.942 324.348L119.638 327.809C119.783 328.642 119.83 329.613 119.779 330.725C119.679 331.906 119.311 332.43 118.675 332.296C115.08 333.107 111.804 333.464 108.847 333.367C104.779 333.219 101.526 332.653 99.0882 331.67C96.5314 330.707 92.9493 328.606 88.3417 325.368ZM139 267.101C136.766 265.531 135.63 263.585 135.593 261.264C135.436 258.964 135.947 256.976 137.125 255.3C137.468 254.812 137.749 254.487 137.966 254.327C138.506 253.559 139.493 252.897 140.927 252.34C142.312 251.854 143.808 251.654 145.416 251.741C147.073 251.758 148.529 252.208 149.786 253.092C151.531 254.319 152.527 256.166 152.774 258.634C152.902 261.123 152.23 263.415 150.758 265.509C150.316 266.138 149.938 266.602 149.623 266.902C146.59 269.881 143.049 269.947 139 267.101Z" fill="black"/>
<path d="M28.4395 240.776C27.4572 238.046 27.4961 235.13 28.5564 232.027C29.6167 228.925 31.6933 226.001 34.7865 223.256C37.8507 220.43 41.7515 218.165 46.4888 216.46C50.4231 215.045 54.7363 214.808 59.4282 215.749C64.011 216.639 68.0494 217.907 71.5433 219.552C73.727 220.58 76.0875 221.091 78.6246 221.085C81.1617 221.079 83.715 220.613 86.2844 219.689C89.3355 218.591 91.4841 218.135 92.7302 218.322C93.4303 218.251 94.1481 218.355 94.8835 218.635C95.59 218.834 96.1102 219.146 96.4442 219.57C96.64 219.862 97.0719 220.432 97.7398 221.28C98.2985 222.077 98.7079 222.836 98.9679 223.559C99.4302 224.844 99.3931 226.127 98.8566 227.408C98.7407 229.354 98.3615 230.443 97.7192 230.674C96.8424 231.262 95.7616 231.786 94.4769 232.249L90.3386 233.602C88.0326 234.25 86.2373 234.806 84.9526 235.268C83.0255 235.961 80.6923 236.03 77.9529 235.474C75.1333 234.947 71.4803 233.994 66.9939 232.616C63.2655 231.327 60.6032 230.608 59.007 230.456C56.0268 229.987 53.4527 230.143 51.2848 230.923C49.0366 231.732 47.4242 233.173 46.4476 235.248C45.2331 238.678 45.0593 241.597 45.926 244.006C46.2727 244.969 46.8924 246.061 47.7851 247.282C49.0856 248.628 51.5951 250.309 55.3138 252.327C55.6703 252.561 55.7232 253.086 55.4726 253.902C55.222 254.718 54.7513 255.93 54.0606 257.539L52.639 260.771C52.2792 261.535 51.7588 262.358 51.0779 263.237C50.3166 264.146 49.7144 264.363 49.2713 263.887C45.864 262.484 42.9786 260.892 40.6152 259.112C37.3718 256.652 35.0358 254.318 33.6069 252.112C32.0689 249.854 30.3464 246.075 28.4395 240.776ZM103.39 222.24C102.466 219.67 102.656 217.425 103.96 215.505C105.155 213.533 106.716 212.201 108.643 211.507C109.205 211.305 109.621 211.201 109.891 211.194C110.774 210.877 111.962 210.902 113.455 211.272C114.868 211.67 116.208 212.367 117.473 213.363C118.818 214.33 119.751 215.536 120.271 216.981C120.993 218.989 120.746 221.073 119.528 223.234C118.202 225.344 116.334 226.832 113.925 227.699C113.203 227.959 112.626 228.121 112.196 228.185C108.001 228.879 105.066 226.897 103.39 222.24Z" fill="black"/>
<path d="M28.0797 137.123C28.8459 134.324 30.5548 131.961 33.2062 130.033C35.8576 128.105 39.2379 126.907 43.3473 126.439C47.4791 125.89 51.973 126.28 56.8289 127.61C60.8618 128.714 64.5267 131 67.8237 134.469C71.0609 137.833 73.6358 141.192 75.5483 144.547C76.7436 146.644 78.3809 148.419 80.46 149.873C82.5391 151.327 84.8955 152.415 87.5292 153.136C90.6568 153.993 92.6766 154.855 93.5888 155.724C94.2022 156.069 94.7293 156.568 95.1702 157.219C95.6336 157.788 95.88 158.343 95.9094 158.881C95.9016 159.233 95.927 159.948 95.9858 161.026C95.9848 161.999 95.8829 162.856 95.6801 163.596C95.3195 164.913 94.5513 165.941 93.3755 166.681C92.1615 168.207 91.2253 168.879 90.5668 168.699C89.5116 168.675 88.3255 168.483 87.0087 168.123L82.845 166.85C80.5856 166.054 78.7974 165.476 77.4806 165.116C75.5053 164.575 73.557 163.289 71.6356 161.259C69.6319 159.206 67.1913 156.326 64.3137 152.618C62.0043 149.42 60.2402 147.3 59.0214 146.259C56.8531 144.161 54.6578 142.808 52.4357 142.199C50.1312 141.568 47.9829 141.821 45.991 142.956C43.025 145.064 41.204 147.352 40.5279 149.821C40.2575 150.809 40.1364 152.058 40.1648 153.57C40.4548 155.419 41.5409 158.238 43.423 162.027C43.5798 162.424 43.3211 162.884 42.647 163.407C41.9729 163.93 40.8906 164.651 39.4003 165.57L36.3786 167.397C35.6447 167.816 34.7462 168.189 33.6831 168.517C32.5377 168.823 31.9204 168.654 31.8313 168.01C29.8511 164.902 28.406 161.941 27.4958 159.126C26.2574 155.247 25.6882 151.995 25.7882 149.368C25.8284 146.636 26.5922 142.555 28.0797 137.123ZM100.057 165.06C100.778 162.426 102.224 160.699 104.396 159.878C106.507 158.952 108.55 158.76 110.526 159.301C111.102 159.458 111.502 159.612 111.726 159.762C112.632 160.01 113.589 160.714 114.598 161.876C115.525 163.014 116.22 164.355 116.682 165.897C117.227 167.462 117.296 168.985 116.891 170.466C116.327 172.524 114.926 174.086 112.687 175.154C110.389 176.118 108.005 176.261 105.536 175.585C104.795 175.382 104.23 175.183 103.841 174.988C100.011 173.143 98.7497 169.834 100.057 165.06Z" fill="black"/>
<path d="M87.3932 52.1168C89.6293 50.2681 92.3863 49.3174 95.6643 49.2647C98.9423 49.212 102.397 50.176 106.027 52.1569C109.723 54.0834 113.176 56.9868 116.384 60.8671C119.048 64.0897 120.731 68.0679 121.434 72.8015C122.148 77.4151 122.322 81.6441 121.958 85.4886C121.73 87.8914 122.048 90.2854 122.913 92.6706C123.778 95.0558 125.08 97.3007 126.82 99.4053C128.886 101.904 130.042 103.772 130.289 105.007C130.592 105.642 130.737 106.353 130.723 107.14C130.775 107.872 130.658 108.467 130.372 108.925C130.163 109.208 129.773 109.807 129.201 110.723C128.641 111.518 128.065 112.161 127.473 112.65C126.421 113.52 125.201 113.919 123.814 113.849C121.943 114.398 120.79 114.41 120.355 113.884C119.506 113.258 118.646 112.419 117.776 111.367L115.101 107.931C113.711 105.981 112.58 104.479 111.71 103.427C110.405 101.849 109.551 99.6765 109.146 96.9106C108.688 94.079 108.347 90.3192 108.125 85.6311C108.075 81.6867 107.851 78.9379 107.453 77.3849C106.885 74.4218 105.867 72.0523 104.399 70.2766C102.877 68.4351 100.974 67.4061 98.6917 67.1895C95.0533 67.2081 92.2476 68.0329 90.2745 69.6641C89.4853 70.3166 88.6676 71.2694 87.8214 72.5226C86.9954 74.2019 86.2628 77.1327 85.6237 81.3148C85.5237 81.7296 85.0476 81.9571 84.1952 81.9975C83.3428 82.0379 82.0428 82.0055 80.295 81.9003L76.7724 81.6571C75.9314 81.5773 74.9817 81.366 73.9232 81.0232C72.8104 80.6146 72.4026 80.1213 72.6998 79.5434C72.8672 75.862 73.388 72.6081 74.2622 69.7818C75.4792 65.8969 76.884 62.9087 78.4764 60.8171C80.0802 58.6055 83.0525 55.7053 87.3932 52.1168ZM130.212 116.365C132.316 114.625 134.493 114.043 136.741 114.62C139.001 115.077 140.784 116.095 142.089 117.673C142.469 118.133 142.708 118.489 142.805 118.741C143.404 119.465 143.782 120.591 143.939 122.122C144.043 123.586 143.84 125.082 143.332 126.61C142.878 128.203 142.059 129.489 140.875 130.468C139.231 131.827 137.186 132.3 134.74 131.886C132.306 131.352 130.273 130.099 128.642 128.126C128.152 127.534 127.805 127.046 127.598 126.663C125.526 122.951 126.397 119.518 130.212 116.365Z" fill="black"/>
</svg>
