<svg width="385" height="357" viewBox="0 0 385 357" fill="none" xmlns="http://www.w3.org/2000/svg">
<path d="M198.248 0C201.149 0 203.88 1.024 206.44 3.072C209 5.12 211.048 8.064 212.584 11.904C214.205 15.744 215.016 20.1813 215.016 25.216C215.016 29.3973 213.779 33.536 211.304 37.632C208.915 41.6427 206.355 45.0133 203.624 47.744C201.917 49.4507 200.637 51.4987 199.784 53.888C198.931 56.2773 198.504 58.8373 198.504 61.568C198.504 64.8107 198.205 66.9867 197.608 68.096C197.437 68.7787 197.096 69.4187 196.584 70.016C196.157 70.6133 195.688 70.9973 195.176 71.168C194.835 71.2533 194.152 71.4667 193.128 71.808C192.189 72.064 191.336 72.192 190.568 72.192C189.203 72.192 188.008 71.7227 186.984 70.784C185.192 70.016 184.296 69.2907 184.296 68.608C184.04 67.584 183.912 66.3893 183.912 65.024L184.04 60.672C184.211 58.2827 184.296 56.4053 184.296 55.04C184.296 52.992 185.021 50.7733 186.472 48.384C187.923 45.9093 190.056 42.7947 192.872 39.04C195.347 35.968 196.925 33.7067 197.608 32.256C199.059 29.6107 199.784 27.136 199.784 24.832C199.784 22.4427 198.973 20.4373 197.352 18.816C194.536 16.512 191.848 15.36 189.288 15.36C188.264 15.36 187.027 15.5733 185.576 16C183.869 16.768 181.437 18.56 178.28 21.376C177.939 21.632 177.427 21.504 176.744 20.992C176.061 20.48 175.08 19.6267 173.8 18.432L171.24 16C170.643 15.4027 170.045 14.6347 169.448 13.696C168.851 12.672 168.851 12.032 169.448 11.776C171.923 9.04533 174.397 6.86933 176.872 5.248C180.285 3.02934 183.272 1.62134 185.832 1.024C188.477 0.341334 192.616 0 198.248 0ZM190.312 76.8C193.043 76.8 195.091 77.7387 196.456 79.616C197.907 81.408 198.632 83.328 198.632 85.376C198.632 85.9733 198.589 86.4 198.504 86.656C198.504 87.5947 198.077 88.704 197.224 89.984C196.371 91.1787 195.261 92.2027 193.896 93.056C192.531 93.9947 191.08 94.464 189.544 94.464C187.411 94.464 185.533 93.5253 183.912 91.648C182.376 89.6853 181.608 87.424 181.608 84.864C181.608 84.096 181.651 83.4987 181.736 83.072C182.504 78.8907 185.363 76.8 190.312 76.8Z" fill="black"/>
<path d="M306.255 35.9107C308.491 37.7594 309.943 40.2885 310.611 43.4981C311.279 46.7077 310.982 50.2817 309.719 54.2199C308.522 58.2126 306.319 62.149 303.111 66.0294C300.447 69.252 296.856 71.6533 292.339 73.2334C287.942 74.8021 283.822 75.7688 279.977 76.1334C277.574 76.3613 275.283 77.1242 273.103 78.422C270.923 79.7198 268.963 81.4209 267.223 83.5255C265.156 86.0247 263.54 87.5115 262.373 87.9859C261.806 88.4033 261.135 88.679 260.36 88.8132C259.651 89.0017 259.044 88.9986 258.541 88.8039C258.223 88.6522 257.561 88.3816 256.555 87.9922C255.668 87.5914 254.929 87.1464 254.337 86.657C253.285 85.7871 252.663 84.6641 252.472 83.2882C251.58 81.5545 251.352 80.4246 251.787 79.8984C252.242 78.9461 252.904 77.9438 253.774 76.8915L256.646 73.6189C258.3 71.8861 259.562 70.4936 260.432 69.4413C261.737 67.8629 263.709 66.615 266.35 65.6979C269.045 64.7149 272.673 63.6737 277.236 62.5742C281.101 61.7833 283.758 61.0464 285.209 60.3633C288.013 59.2488 290.148 57.8037 291.616 56.028C293.139 54.1864 293.792 52.1244 293.575 49.8417C292.873 46.2717 291.535 43.6711 289.562 42.0399C288.773 41.3874 287.683 40.7635 286.294 40.168C284.489 39.6724 281.473 39.504 277.245 39.6625C276.819 39.6424 276.506 39.2175 276.306 38.3879C276.106 37.5583 275.893 36.2753 275.668 34.539L275.245 31.0334C275.165 30.1925 275.194 29.2199 275.331 28.1159C275.524 26.9461 275.931 26.4528 276.555 26.6361C280.202 26.1083 283.496 26.008 286.436 26.3352C290.481 26.8002 293.68 27.618 296.033 28.7888C298.507 29.9482 301.914 32.3222 306.255 35.9107ZM251.203 90.0454C253.308 91.7853 254.288 93.8137 254.144 96.1305C254.121 98.436 253.456 100.378 252.151 101.956C251.771 102.417 251.466 102.718 251.237 102.861C250.639 103.585 249.603 104.168 248.13 104.611C246.711 104.988 245.204 105.07 243.608 104.858C241.957 104.711 240.54 104.149 239.356 103.17C237.712 101.811 236.863 99.8911 236.81 97.4111C236.877 94.9197 237.726 92.6875 239.357 90.7145C239.846 90.1226 240.26 89.6894 240.597 89.4149C243.854 86.6816 247.389 86.8918 251.203 90.0454Z" fill="black"/>
<path d="M359.372 124.92C360.138 127.719 359.871 130.623 358.572 133.633C357.273 136.643 354.974 139.396 351.676 141.891C348.401 144.469 344.335 146.423 339.479 147.753C335.447 148.857 331.128 148.757 326.524 147.452C322.025 146.206 318.098 144.627 314.743 142.715C312.646 141.52 310.332 140.826 307.803 140.634C305.273 140.442 302.691 140.707 300.057 141.428C296.93 142.284 294.752 142.571 293.524 142.288C292.821 142.303 292.113 142.143 291.402 141.807C290.713 141.553 290.219 141.202 289.919 140.753C289.747 140.447 289.361 139.845 288.761 138.947C288.266 138.109 287.917 137.32 287.715 136.579C287.354 135.263 287.491 133.986 288.126 132.751C288.393 130.82 288.856 129.764 289.515 129.584C290.435 129.066 291.553 128.627 292.87 128.267L297.101 127.241C299.451 126.774 301.284 126.361 302.601 126C304.576 125.459 306.908 125.573 309.595 126.341C312.365 127.087 315.933 128.322 320.298 130.046C323.914 131.621 326.512 132.547 328.092 132.822C331.026 133.523 333.605 133.569 335.827 132.96C338.131 132.329 339.851 131.018 340.987 129.026C342.465 125.701 342.867 122.804 342.191 120.335C341.92 119.347 341.388 118.21 340.593 116.924C339.401 115.481 337.031 113.608 333.481 111.307C333.144 111.045 333.132 110.518 333.446 109.724C333.759 108.93 334.323 107.758 335.137 106.208L336.807 103.097C337.225 102.363 337.808 101.584 338.556 100.76C339.385 99.9135 340.003 99.7445 340.407 100.253C343.695 101.919 346.447 103.731 348.664 105.689C351.706 108.395 353.853 110.904 355.105 113.216C356.462 115.587 357.884 119.488 359.372 124.92ZM283.203 137.55C283.924 140.183 283.559 142.406 282.109 144.219C280.764 146.092 279.104 147.298 277.128 147.839C276.552 147.997 276.129 148.068 275.86 148.054C274.955 148.302 273.772 148.183 272.312 147.698C270.935 147.191 269.654 146.391 268.47 145.3C267.204 144.231 266.369 142.955 265.963 141.474C265.399 139.416 265.809 137.358 267.191 135.298C268.679 133.298 270.657 131.96 273.126 131.284C273.867 131.081 274.454 130.965 274.888 130.934C279.124 130.571 281.895 132.776 283.203 137.55Z" fill="black"/>
<path d="M351.64 228.285C350.657 231.015 348.769 233.238 345.975 234.953C343.181 236.669 339.718 237.599 335.585 237.744C331.423 237.969 326.973 237.23 322.236 235.525C318.301 234.109 314.826 231.544 311.81 227.828C308.845 224.222 306.54 220.672 304.895 217.178C303.867 214.994 302.374 213.097 300.414 211.485C298.455 209.873 296.191 208.605 293.621 207.68C290.57 206.582 288.624 205.564 287.782 204.627C287.198 204.235 286.711 203.697 286.322 203.013C285.905 202.409 285.702 201.838 285.715 201.298C285.75 200.948 285.781 200.233 285.806 199.154C285.883 198.185 286.052 197.338 286.312 196.616C286.774 195.331 287.62 194.366 288.85 193.72C290.18 192.294 291.165 191.696 291.808 191.928C292.858 192.033 294.025 192.317 295.31 192.78L299.362 194.374C301.552 195.343 303.29 196.059 304.574 196.521C306.501 197.215 308.343 198.649 310.1 200.823C311.938 203.025 314.146 206.087 316.726 210.008C318.778 213.377 320.372 215.628 321.505 216.762C323.503 219.022 325.586 220.543 327.754 221.323C330.002 222.132 332.164 222.048 334.238 221.071C337.36 219.202 339.354 217.062 340.22 214.654C340.567 213.69 340.785 212.454 340.875 210.944C340.73 209.078 339.868 206.183 338.287 202.259C338.162 201.851 338.455 201.413 339.168 200.944C339.881 200.475 341.016 199.84 342.574 199.04L345.729 197.455C346.493 197.095 347.418 196.793 348.504 196.549C349.67 196.334 350.272 196.55 350.31 197.199C352.042 200.452 353.251 203.517 353.939 206.395C354.871 210.358 355.185 213.645 354.88 216.256C354.627 218.976 353.546 222.986 351.64 228.285ZM282.063 194.815C281.138 197.384 279.561 198.993 277.333 199.642C275.155 200.4 273.103 200.433 271.176 199.739C270.614 199.537 270.227 199.353 270.015 199.186C269.132 198.868 268.233 198.091 267.317 196.854C266.482 195.647 265.894 194.256 265.553 192.683C265.132 191.08 265.182 189.556 265.702 188.111C266.424 186.104 267.943 184.655 270.259 183.765C272.625 182.984 275.013 183.027 277.422 183.894C278.145 184.154 278.692 184.397 279.065 184.621C282.739 186.76 283.738 190.158 282.063 194.815Z" fill="black"/>
<path d="M285.872 308.402C283.498 310.07 280.675 310.803 277.403 310.599C274.131 310.396 270.763 309.165 267.298 306.907C263.763 304.698 260.548 301.534 257.653 297.415C255.248 293.994 253.881 289.897 253.55 285.123C253.198 280.468 253.354 276.238 254.018 272.434C254.432 270.056 254.302 267.644 253.626 265.199C252.95 262.754 251.827 260.414 250.256 258.18C248.392 255.527 247.385 253.575 247.235 252.324C246.982 251.667 246.894 250.948 246.969 250.164C246.975 249.43 247.138 248.846 247.458 248.412C247.689 248.146 248.124 247.579 248.766 246.711C249.387 245.962 250.011 245.366 250.639 244.925C251.756 244.139 253.004 243.836 254.381 244.015C256.289 243.613 257.439 243.691 257.832 244.25C258.63 244.94 259.422 245.844 260.207 246.961L262.605 250.595C263.839 252.648 264.849 254.233 265.634 255.35C266.812 257.025 267.494 259.258 267.682 262.047C267.918 264.905 267.964 268.68 267.819 273.371C267.561 277.308 267.57 280.066 267.846 281.645C268.18 284.643 269.01 287.085 270.335 288.97C271.709 290.925 273.526 292.099 275.784 292.493C279.413 292.758 282.275 292.155 284.369 290.683C285.207 290.094 286.096 289.208 287.038 288.025C287.992 286.415 288.951 283.55 289.915 279.431C290.047 279.025 290.54 278.835 291.393 278.862C292.245 278.888 293.539 279.022 295.273 279.263L298.766 279.78C299.598 279.926 300.529 280.21 301.557 280.635C302.635 281.129 303.003 281.653 302.661 282.206C302.207 285.863 301.434 289.066 300.342 291.816C298.825 295.594 297.191 298.463 295.441 300.424C293.669 302.504 290.479 305.163 285.872 308.402ZM248.199 241.008C245.965 242.578 243.75 242.988 241.553 242.237C239.336 241.605 237.638 240.452 236.46 238.776C236.117 238.287 235.907 237.914 235.829 237.655C235.289 236.887 235 235.734 234.962 234.197C234.974 232.729 235.292 231.253 235.918 229.77C236.496 228.216 237.413 226.998 238.669 226.115C240.414 224.888 242.49 224.576 244.896 225.18C247.281 225.902 249.21 227.311 250.682 229.405C251.124 230.033 251.433 230.546 251.608 230.945C253.384 234.807 252.248 238.161 248.199 241.008Z" fill="black"/>
<path d="M185.994 336.124C183.093 336.124 180.362 335.1 177.802 333.052C175.242 331.004 173.194 328.06 171.658 324.22C170.037 320.38 169.226 315.943 169.226 310.908C169.226 306.727 170.464 302.588 172.938 298.492C175.328 294.482 177.888 291.111 180.618 288.38C182.325 286.674 183.605 284.626 184.458 282.236C185.312 279.847 185.738 277.287 185.738 274.556C185.738 271.314 186.037 269.138 186.634 268.028C186.805 267.346 187.146 266.706 187.658 266.108C188.085 265.511 188.554 265.127 189.066 264.956C189.408 264.871 190.09 264.658 191.114 264.316C192.053 264.06 192.906 263.932 193.674 263.932C195.04 263.932 196.234 264.402 197.258 265.34C199.05 266.108 199.946 266.834 199.946 267.516C200.202 268.54 200.33 269.735 200.33 271.1L200.202 275.452C200.032 277.842 199.946 279.719 199.946 281.084C199.946 283.132 199.221 285.351 197.77 287.74C196.32 290.215 194.186 293.33 191.37 297.084C188.896 300.156 187.317 302.418 186.634 303.868C185.184 306.514 184.458 308.988 184.458 311.292C184.458 313.682 185.269 315.687 186.89 317.308C189.706 319.612 192.394 320.764 194.954 320.764C195.978 320.764 197.216 320.551 198.666 320.124C200.373 319.356 202.805 317.564 205.962 314.748C206.304 314.492 206.816 314.62 207.498 315.132C208.181 315.644 209.162 316.498 210.442 317.692L213.002 320.124C213.6 320.722 214.197 321.49 214.794 322.428C215.392 323.452 215.392 324.092 214.794 324.348C212.32 327.079 209.845 329.255 207.37 330.876C203.957 333.095 200.97 334.503 198.41 335.1C195.765 335.783 191.626 336.124 185.994 336.124ZM193.93 259.324C191.2 259.324 189.152 258.386 187.786 256.508C186.336 254.716 185.61 252.796 185.61 250.748C185.61 250.151 185.653 249.724 185.738 249.468C185.738 248.53 186.165 247.42 187.018 246.14C187.872 244.946 188.981 243.922 190.346 243.068C191.712 242.13 193.162 241.66 194.698 241.66C196.832 241.66 198.709 242.599 200.33 244.476C201.866 246.439 202.634 248.7 202.634 251.26C202.634 252.028 202.592 252.626 202.506 253.052C201.738 257.234 198.88 259.324 193.93 259.324Z" fill="black"/>
<path d="M88.3417 301.368C85.9682 299.699 84.3231 297.291 83.4065 294.143C82.4899 290.996 82.5074 287.41 83.4591 283.385C84.3409 279.311 86.2295 275.214 89.1248 271.096C91.5294 267.675 94.9217 265 99.3017 263.073C103.563 261.166 107.596 259.88 111.4 259.217C113.778 258.802 116.002 257.862 118.075 256.398C120.147 254.934 121.968 253.085 123.538 250.851C125.403 248.199 126.899 246.59 128.025 246.026C128.558 245.566 129.205 245.238 129.967 245.044C130.66 244.801 131.265 244.757 131.782 244.911C132.11 245.038 132.791 245.256 133.825 245.566C134.74 245.896 135.512 246.282 136.14 246.724C137.257 247.509 137.965 248.58 138.263 249.937C139.287 251.595 139.603 252.704 139.21 253.263C138.831 254.248 138.249 255.299 137.464 256.415L134.856 259.902C133.342 261.759 132.193 263.246 131.408 264.363C130.23 266.038 128.361 267.436 125.8 268.557C123.19 269.747 119.654 271.068 115.191 272.52C111.4 273.611 108.808 274.553 107.415 275.347C104.707 276.677 102.69 278.284 101.365 280.169C99.9913 282.124 99.5013 284.231 99.8953 286.489C100.874 289.994 102.411 292.482 104.505 293.954C105.343 294.543 106.478 295.08 107.91 295.565C109.748 295.918 112.768 295.851 116.97 295.363C117.397 295.35 117.742 295.749 118.006 296.56C118.27 297.372 118.582 298.634 118.942 300.348L119.638 303.809C119.783 304.642 119.83 305.613 119.779 306.725C119.679 307.906 119.311 308.43 118.675 308.296C115.08 309.107 111.804 309.464 108.847 309.367C104.779 309.219 101.526 308.653 99.0882 307.67C96.5314 306.707 92.9493 304.606 88.3417 301.368ZM139 243.101C136.766 241.531 135.63 239.585 135.593 237.264C135.436 234.964 135.947 232.976 137.125 231.3C137.468 230.812 137.749 230.487 137.966 230.327C138.506 229.559 139.493 228.897 140.927 228.34C142.312 227.854 143.808 227.654 145.416 227.741C147.073 227.758 148.529 228.208 149.786 229.092C151.531 230.319 152.527 232.166 152.774 234.634C152.902 237.123 152.23 239.415 150.758 241.509C150.316 242.138 149.938 242.602 149.623 242.902C146.59 245.881 143.049 245.947 139 243.101Z" fill="black"/>
<path d="M28.4395 216.776C27.4572 214.046 27.4961 211.13 28.5564 208.027C29.6167 204.925 31.6933 202.001 34.7865 199.256C37.8507 196.43 41.7515 194.165 46.4888 192.46C50.4231 191.045 54.7363 190.808 59.4282 191.749C64.011 192.639 68.0494 193.907 71.5433 195.552C73.727 196.58 76.0875 197.091 78.6246 197.085C81.1617 197.079 83.715 196.613 86.2844 195.689C89.3355 194.591 91.4841 194.135 92.7302 194.322C93.4303 194.251 94.1481 194.355 94.8835 194.635C95.59 194.834 96.1102 195.146 96.4442 195.57C96.64 195.862 97.0719 196.432 97.7398 197.28C98.2985 198.077 98.7079 198.836 98.9679 199.559C99.4302 200.844 99.3931 202.127 98.8566 203.408C98.7407 205.354 98.3615 206.443 97.7192 206.674C96.8424 207.262 95.7616 207.786 94.4769 208.249L90.3386 209.602C88.0326 210.25 86.2373 210.806 84.9526 211.268C83.0255 211.961 80.6923 212.03 77.9529 211.474C75.1333 210.947 71.4803 209.994 66.9939 208.616C63.2655 207.327 60.6032 206.608 59.007 206.456C56.0268 205.987 53.4527 206.143 51.2848 206.923C49.0366 207.732 47.4242 209.173 46.4476 211.248C45.2331 214.678 45.0593 217.597 45.926 220.006C46.2727 220.969 46.8924 222.061 47.7851 223.282C49.0856 224.628 51.5951 226.309 55.3138 228.327C55.6703 228.561 55.7232 229.086 55.4726 229.902C55.222 230.718 54.7513 231.93 54.0606 233.539L52.639 236.771C52.2792 237.535 51.7588 238.358 51.0779 239.237C50.3166 240.146 49.7144 240.363 49.2713 239.887C45.864 238.484 42.9786 236.892 40.6152 235.112C37.3718 232.652 35.0358 230.318 33.6069 228.112C32.0689 225.854 30.3464 222.075 28.4395 216.776ZM103.39 198.24C102.466 195.67 102.656 193.425 103.96 191.505C105.155 189.533 106.716 188.201 108.643 187.507C109.205 187.305 109.621 187.201 109.891 187.194C110.774 186.877 111.962 186.902 113.455 187.272C114.868 187.67 116.208 188.367 117.473 189.363C118.818 190.33 119.751 191.536 120.271 192.981C120.993 194.989 120.746 197.073 119.528 199.234C118.202 201.344 116.334 202.832 113.925 203.699C113.203 203.959 112.626 204.121 112.196 204.185C108.001 204.879 105.066 202.897 103.39 198.24Z" fill="black"/>
<path d="M28.0797 113.123C28.8459 110.324 30.5548 107.961 33.2062 106.033C35.8576 104.105 39.2379 102.907 43.3473 102.439C47.4791 101.89 51.973 102.28 56.8289 103.61C60.8618 104.714 64.5267 107 67.8237 110.469C71.0609 113.833 73.6358 117.192 75.5483 120.547C76.7436 122.644 78.3809 124.419 80.46 125.873C82.5391 127.327 84.8955 128.415 87.5292 129.136C90.6568 129.993 92.6766 130.855 93.5888 131.724C94.2022 132.069 94.7293 132.568 95.1702 133.219C95.6336 133.788 95.88 134.343 95.9094 134.881C95.9016 135.233 95.927 135.948 95.9858 137.026C95.9848 137.999 95.8829 138.856 95.6801 139.596C95.3195 140.913 94.5513 141.941 93.3755 142.681C92.1615 144.207 91.2253 144.879 90.5668 144.699C89.5116 144.675 88.3255 144.483 87.0087 144.123L82.845 142.85C80.5856 142.054 78.7974 141.476 77.4806 141.116C75.5053 140.575 73.557 139.289 71.6356 137.259C69.6319 135.206 67.1913 132.326 64.3137 128.618C62.0043 125.42 60.2402 123.3 59.0214 122.259C56.8531 120.161 54.6578 118.808 52.4357 118.199C50.1312 117.568 47.9829 117.821 45.991 118.956C43.025 121.064 41.204 123.352 40.5279 125.821C40.2575 126.809 40.1364 128.058 40.1648 129.57C40.4548 131.419 41.5409 134.238 43.423 138.027C43.5798 138.424 43.3211 138.884 42.647 139.407C41.9729 139.93 40.8906 140.651 39.4003 141.57L36.3786 143.397C35.6447 143.816 34.7462 144.189 33.6831 144.517C32.5377 144.823 31.9204 144.654 31.8313 144.01C29.8511 140.902 28.406 137.941 27.4958 135.126C26.2574 131.247 25.6882 127.995 25.7882 125.368C25.8284 122.636 26.5922 118.555 28.0797 113.123ZM100.057 141.06C100.778 138.426 102.224 136.699 104.396 135.878C106.507 134.952 108.55 134.76 110.526 135.301C111.102 135.458 111.502 135.612 111.726 135.762C112.632 136.01 113.589 136.714 114.598 137.876C115.525 139.014 116.22 140.355 116.682 141.897C117.227 143.462 117.296 144.985 116.891 146.466C116.327 148.524 114.926 150.086 112.687 151.154C110.389 152.118 108.005 152.261 105.536 151.585C104.795 151.382 104.23 151.183 103.841 150.988C100.011 149.143 98.7497 145.834 100.057 141.06Z" fill="black"/>
<path d="M87.3932 28.1168C89.6293 26.2681 92.3863 25.3174 95.6643 25.2647C98.9423 25.212 102.397 26.176 106.027 28.1569C109.723 30.0834 113.176 32.9868 116.384 36.8671C119.048 40.0897 120.731 44.0679 121.434 48.8015C122.148 53.4151 122.322 57.6441 121.958 61.4886C121.73 63.8914 122.048 66.2854 122.913 68.6706C123.778 71.0558 125.08 73.3007 126.82 75.4053C128.886 77.9045 130.042 79.7719 130.289 81.0075C130.592 81.6424 130.737 82.3531 130.723 83.1397C130.775 83.872 130.658 84.467 130.372 84.9247C130.163 85.208 129.773 85.8074 129.201 86.7229C128.641 87.5183 128.065 88.1607 127.473 88.6501C126.421 89.52 125.201 89.9195 123.814 89.8485C121.943 90.3984 120.79 90.4103 120.355 89.8842C119.506 89.2581 118.646 88.4189 117.776 87.3666L115.101 83.9308C113.711 81.9806 112.58 80.4793 111.71 79.427C110.405 77.8486 109.551 75.6765 109.146 72.9106C108.688 70.079 108.347 66.3192 108.125 61.6311C108.075 57.6867 107.851 54.9379 107.453 53.3849C106.885 50.4218 105.867 48.0523 104.399 46.2766C102.877 44.4351 100.974 43.4061 98.6917 43.1895C95.0533 43.2081 92.2476 44.0329 90.2745 45.6641C89.4853 46.3166 88.6676 47.2694 87.8214 48.5226C86.9954 50.2019 86.2628 53.1327 85.6237 57.3148C85.5237 57.7296 85.0476 57.9571 84.1952 57.9975C83.3428 58.0379 82.0428 58.0055 80.295 57.9003L76.7724 57.6571C75.9314 57.5773 74.9817 57.366 73.9232 57.0232C72.8104 56.6146 72.4026 56.1213 72.6998 55.5434C72.8672 51.862 73.388 48.6081 74.2622 45.7818C75.4792 41.8969 76.884 38.9087 78.4764 36.8171C80.0802 34.6055 83.0525 31.7053 87.3932 28.1168ZM130.212 92.3646C132.316 90.6247 134.493 90.0433 136.741 90.6202C139.001 91.077 140.784 92.0946 142.089 93.673C142.469 94.1334 142.708 94.4894 142.805 94.7411C143.404 95.4646 143.782 96.5914 143.939 98.1217C144.043 99.5861 143.84 101.082 143.332 102.61C142.878 104.203 142.059 105.489 140.875 106.468C139.231 107.827 137.186 108.3 134.74 107.886C132.306 107.352 130.273 106.099 128.642 104.126C128.152 103.534 127.805 103.046 127.598 102.663C125.526 98.951 126.397 95.5182 130.212 92.3646Z" fill="black"/>
</svg>
